<svg id="Layer_1" data-name="Layer 1" xmlns="http://www.w3.org/2000/svg" viewBox="0 0 1310 686"><defs><style>.cls-1{fill:#ff6d6d;}</style></defs><path class="cls-1" d="M932.15,628H44.85c-5.44,0-9.85-5.41-9.85-12.07V474.07c0-6.66,4.41-12.07,9.85-12.07H735.4a8.61,8.61,0,0,1,5.29,1.89l103,80.46a9.14,9.14,0,0,0,2.74,1.48l88.3,29.06c4.31,1.41,7.3,6.19,7.3,11.66v29.38C942,622.59,937.59,628,932.15,628Z"/><path class="cls-1" d="M933,9C739.15,9,582,147.57,582,318.5S739.15,628,933,628s351-138.57,351-309.5S1126.85,9,933,9Zm82,562.2c-107.14,0-194-83.85-194-187.29s86.86-187.29,194-187.29,194,83.85,194,187.29S1122.14,571.2,1015,571.2Z"/></svg>